<svg width="18" height="18" viewBox="0 0 18 18" fill="none" xmlns="http://www.w3.org/2000/svg">
<path d="M14.7855 9.00003C14.4305 9.00003 14.1426 9.28784 14.1426 9.64289V16.0714C14.1426 16.4264 13.8548 16.7142 13.4998 16.7142H1.92855C1.5735 16.7142 1.28568 16.4264 1.28568 16.0714V3.21439C1.28568 2.85934 1.5735 2.57153 1.92855 2.57153H9.64273C9.99778 2.57153 10.2856 2.28371 10.2856 1.92867C10.2856 1.57362 9.99778 1.28584 9.64273 1.28584H1.92855C0.863439 1.28584 0 2.14928 0 3.21439V16.0714C0 17.1365 0.863439 17.9999 1.92855 17.9999H13.4998C14.5649 17.9999 15.4284 17.1365 15.4284 16.0714V9.64285C15.4284 9.28784 15.1406 9.00003 14.7855 9.00003Z" fill="black"/>
<path d="M17.2794 0.721017C16.8178 0.259371 16.1918 7.21658e-05 15.539 0.0001475C14.8858 -0.00173585 14.2591 0.258015 13.7988 0.721431L5.33115 9.18835C5.26091 9.25913 5.20791 9.34516 5.17623 9.4397L3.89054 13.2968C3.77834 13.6337 3.96045 13.9977 4.29731 14.1098C4.36266 14.1316 4.4311 14.1427 4.49996 14.1428C4.56896 14.1427 4.63756 14.1316 4.7031 14.11L8.56019 12.8243C8.65492 12.7927 8.74099 12.7394 8.81154 12.6688L17.2791 4.20118C18.2402 3.24022 18.2403 1.68209 17.2794 0.721017ZM16.3702 3.2928L8.01312 11.6498L5.51629 12.4836L6.34748 9.98998L14.7077 1.63297C15.1673 1.17426 15.9118 1.17502 16.3705 1.63463C16.5897 1.85419 16.7131 2.15142 16.7141 2.46161C16.7149 2.77345 16.591 3.07268 16.3702 3.2928Z" fill="black"/>
</svg>
