<svg width="60" height="60" viewBox="0 0 60 60" fill="none" xmlns="http://www.w3.org/2000/svg">
<path d="M57.5 12.5H50V2.5C50 1.12 48.88 0 47.5 0H7.5C3.36375 0 0 3.36375 0 7.5V52.5C0 56.6362 3.36375 60 7.5 60H52.5C56.6362 60 60 56.6362 60 52.5V15C60 13.62 58.88 12.5 57.5 12.5ZM7.5 55C6.12125 55 5 53.8787 5 52.5V7.5C5 6.12125 6.12125 5 7.5 5H45V15V52.5C45 53.3775 45.16 54.2163 45.4375 55H7.5ZM55 52.5C55 53.8787 53.8787 55 52.5 55C51.1213 55 50 53.8787 50 52.5V17.5H55V52.5Z" fill="#DA3643"/>
<path d="M37.5 12.4995H12.5C11.12 12.4995 10 13.6195 10 14.9995C10 16.3795 11.12 17.4995 12.5 17.4995H37.5C38.88 17.4995 40 16.3795 40 14.9995C40 13.6195 38.88 12.4995 37.5 12.4995Z" fill="#DA3643"/>
<path d="M32.5 27.4998H12.5C11.12 27.4998 10 28.6198 10 29.9998C10 31.3798 11.12 32.4998 12.5 32.4998H32.5C33.88 32.4998 35 31.3798 35 29.9998C35 28.6198 33.88 27.4998 32.5 27.4998Z" fill="#DA3643"/>
<path d="M30 34.9998H12.5C11.12 34.9998 10 36.1198 10 37.4998C10 38.8798 11.12 39.9998 12.5 39.9998H30C31.38 39.9998 32.5 38.8798 32.5 37.4998C32.5 36.1198 31.38 34.9998 30 34.9998Z" fill="#DA3643"/>
<path d="M27.5 42.5H12.5C11.12 42.5 10 43.62 10 45C10 46.38 11.12 47.5 12.5 47.5H27.5C28.88 47.5 30 46.38 30 45C30 43.62 28.88 42.5 27.5 42.5Z" fill="#DA3643"/>
</svg>
