<svg width="217" height="28" viewBox="0 0 217 28" fill="none" xmlns="http://www.w3.org/2000/svg">
<path d="M0.26 14.4C0.26 11.928 0.812 9.72 1.916 7.776C3.044 5.808 4.568 4.284 6.488 3.204C8.432 2.1 10.604 1.548 13.004 1.548C15.812 1.548 18.272 2.268 20.384 3.708C22.496 5.148 23.972 7.14 24.812 9.684H19.016C18.44 8.484 17.624 7.584 16.568 6.984C15.536 6.384 14.336 6.084 12.968 6.084C11.504 6.084 10.196 6.432 9.044 7.128C7.916 7.8 7.028 8.76 6.38 10.008C5.756 11.256 5.444 12.72 5.444 14.4C5.444 16.056 5.756 17.52 6.38 18.792C7.028 20.04 7.916 21.012 9.044 21.708C10.196 22.38 11.504 22.716 12.968 22.716C14.336 22.716 15.536 22.416 16.568 21.816C17.624 21.192 18.44 20.28 19.016 19.08H24.812C23.972 21.648 22.496 23.652 20.384 25.092C18.296 26.508 15.836 27.216 13.004 27.216C10.604 27.216 8.432 26.676 6.488 25.596C4.568 24.492 3.044 22.968 1.916 21.024C0.812 19.08 0.26 16.872 0.26 14.4ZM34.1568 0.36V27H29.1168V0.36H34.1568ZM47.9923 27.324C46.0723 27.324 44.3443 26.904 42.8083 26.064C41.2723 25.2 40.0603 23.988 39.1723 22.428C38.3083 20.868 37.8763 19.068 37.8763 17.028C37.8763 14.988 38.3203 13.188 39.2083 11.628C40.1203 10.068 41.3563 8.868 42.9163 8.028C44.4763 7.164 46.2163 6.732 48.1363 6.732C50.0563 6.732 51.7963 7.164 53.3563 8.028C54.9163 8.868 56.1403 10.068 57.0283 11.628C57.9403 13.188 58.3963 14.988 58.3963 17.028C58.3963 19.068 57.9283 20.868 56.9923 22.428C56.0803 23.988 54.8323 25.2 53.2483 26.064C51.6883 26.904 49.9363 27.324 47.9923 27.324ZM47.9923 22.932C48.9043 22.932 49.7563 22.716 50.5483 22.284C51.3643 21.828 52.0123 21.156 52.4923 20.268C52.9723 19.38 53.2123 18.3 53.2123 17.028C53.2123 15.132 52.7083 13.68 51.7003 12.672C50.7163 11.64 49.5043 11.124 48.0643 11.124C46.6243 11.124 45.4123 11.64 44.4283 12.672C43.4683 13.68 42.9883 15.132 42.9883 17.028C42.9883 18.924 43.4563 20.388 44.3923 21.42C45.3523 22.428 46.5523 22.932 47.9923 22.932ZM80.9214 7.056V27H75.8454V24.48C75.1974 25.344 74.3454 26.028 73.2894 26.532C72.2574 27.012 71.1294 27.252 69.9054 27.252C68.3454 27.252 66.9654 26.928 65.7654 26.28C64.5654 25.608 63.6174 24.636 62.9214 23.364C62.2494 22.068 61.9134 20.532 61.9134 18.756V7.056H66.9534V18.036C66.9534 19.62 67.3494 20.844 68.1414 21.708C68.9334 22.548 70.0134 22.968 71.3814 22.968C72.7734 22.968 73.8654 22.548 74.6574 21.708C75.4494 20.844 75.8454 19.62 75.8454 18.036V7.056H80.9214ZM84.5982 16.956C84.5982 14.94 84.9942 13.152 85.7862 11.592C86.6022 10.032 87.7062 8.832 89.0982 7.992C90.4902 7.152 92.0382 6.732 93.7422 6.732C95.0382 6.732 96.2742 7.02 97.4502 7.596C98.6262 8.148 99.5622 8.892 100.258 9.828V0.36H105.37V27H100.258V24.048C99.6342 25.032 98.7582 25.824 97.6302 26.424C96.5022 27.024 95.1942 27.324 93.7062 27.324C92.0262 27.324 90.4902 26.892 89.0982 26.028C87.7062 25.164 86.6022 23.952 85.7862 22.392C84.9942 20.808 84.5982 18.996 84.5982 16.956ZM100.294 17.028C100.294 15.804 100.054 14.76 99.5742 13.896C99.0942 13.008 98.4462 12.336 97.6302 11.88C96.8142 11.4 95.9382 11.16 95.0022 11.16C94.0662 11.16 93.2022 11.388 92.4102 11.844C91.6182 12.3 90.9702 12.972 90.4662 13.86C89.9862 14.724 89.7462 15.756 89.7462 16.956C89.7462 18.156 89.9862 19.212 90.4662 20.124C90.9702 21.012 91.6182 21.696 92.4102 22.176C93.2262 22.656 94.0902 22.896 95.0022 22.896C95.9382 22.896 96.8142 22.668 97.6302 22.212C98.4462 21.732 99.0942 21.06 99.5742 20.196C100.054 19.308 100.294 18.252 100.294 17.028Z" fill="black"/>
<path d="M146.267 1.872V27H141.227V10.656L134.495 27H130.679L123.911 10.656V27H118.871V1.872H124.595L132.587 20.556L140.579 1.872H146.267ZM169.79 16.596C169.79 17.316 169.742 17.964 169.646 18.54H155.066C155.186 19.98 155.69 21.108 156.578 21.924C157.466 22.74 158.558 23.148 159.854 23.148C161.726 23.148 163.058 22.344 163.85 20.736H169.286C168.71 22.656 167.606 24.24 165.974 25.488C164.342 26.712 162.338 27.324 159.962 27.324C158.042 27.324 156.314 26.904 154.778 26.064C153.266 25.2 152.078 23.988 151.214 22.428C150.374 20.868 149.954 19.068 149.954 17.028C149.954 14.964 150.374 13.152 151.214 11.592C152.054 10.032 153.23 8.832 154.742 7.992C156.254 7.152 157.994 6.732 159.962 6.732C161.858 6.732 163.55 7.14 165.038 7.956C166.55 8.772 167.714 9.936 168.53 11.448C169.37 12.936 169.79 14.652 169.79 16.596ZM164.57 15.156C164.546 13.86 164.078 12.828 163.166 12.06C162.254 11.268 161.138 10.872 159.818 10.872C158.57 10.872 157.514 11.256 156.65 12.024C155.81 12.768 155.294 13.812 155.102 15.156H164.57ZM184.52 6.768C186.896 6.768 188.816 7.524 190.28 9.036C191.744 10.524 192.476 12.612 192.476 15.3V27H187.436V15.984C187.436 14.4 187.04 13.188 186.248 12.348C185.456 11.484 184.376 11.052 183.008 11.052C181.616 11.052 180.512 11.484 179.696 12.348C178.904 13.188 178.508 14.4 178.508 15.984V27H173.468V7.056H178.508V9.54C179.18 8.676 180.032 8.004 181.064 7.524C182.12 7.02 183.272 6.768 184.52 6.768ZM216.097 7.056V27H211.021V24.48C210.373 25.344 209.521 26.028 208.465 26.532C207.433 27.012 206.305 27.252 205.081 27.252C203.521 27.252 202.141 26.928 200.941 26.28C199.741 25.608 198.793 24.636 198.097 23.364C197.425 22.068 197.089 20.532 197.089 18.756V7.056H202.129V18.036C202.129 19.62 202.525 20.844 203.317 21.708C204.109 22.548 205.189 22.968 206.557 22.968C207.949 22.968 209.041 22.548 209.833 21.708C210.625 20.844 211.021 19.62 211.021 18.036V7.056H216.097Z" fill="#DA3643"/>
</svg>
