<svg width="18" height="18" viewBox="0 0 18 18" fill="none" xmlns="http://www.w3.org/2000/svg">
<g clip-path="url(#clip0)">
<path d="M8.87173 8.67066C10.0629 8.67066 11.0943 8.24343 11.9372 7.40051C12.7798 6.55772 13.2072 5.52652 13.2072 4.33519C13.2072 3.14427 12.78 2.11293 11.9371 1.26987C11.0941 0.427222 10.0628 -7.62939e-06 8.87173 -7.62939e-06C7.6804 -7.62939e-06 6.6492 0.427222 5.80641 1.27001C4.96362 2.1128 4.53625 3.14414 4.53625 4.33519C4.53625 5.52652 4.96362 6.55786 5.80641 7.40064C6.64948 8.24329 7.68082 8.67066 8.87173 8.67066ZM6.55238 2.01584C7.19907 1.36916 7.95767 1.05482 8.87173 1.05482C9.78566 1.05482 10.5444 1.36916 11.1912 2.01584C11.8379 2.66266 12.1524 3.4214 12.1524 4.33519C12.1524 5.24925 11.8379 6.00785 11.1912 6.65467C10.5444 7.30149 9.78566 7.61584 8.87173 7.61584C7.95795 7.61584 7.19934 7.30135 6.55238 6.65467C5.90556 6.00799 5.59108 5.24925 5.59108 4.33519C5.59108 3.4214 5.90556 2.66266 6.55238 2.01584Z" fill="#2D2D2D"/>
<path d="M16.4577 13.8411C16.4333 13.4903 16.3842 13.1078 16.3118 12.7037C16.2388 12.2967 16.1447 11.9119 16.0321 11.5602C15.9156 11.1967 15.7576 10.8377 15.5619 10.4937C15.359 10.1366 15.1206 9.82573 14.8531 9.56989C14.5734 9.30223 14.2309 9.08704 13.8348 8.93007C13.4401 8.77393 13.0027 8.69483 12.5349 8.69483C12.3511 8.69483 12.1734 8.77022 11.8302 8.99366C11.619 9.1314 11.3719 9.2907 11.0962 9.46689C10.8604 9.61713 10.541 9.75789 10.1464 9.88533C9.76149 10.0099 9.37065 10.0731 8.98476 10.0731C8.59914 10.0731 8.2083 10.0099 7.82309 9.88533C7.42896 9.75803 7.10939 9.61727 6.87401 9.46703C6.60086 9.29248 6.35367 9.13318 6.1393 8.99352C5.79639 8.77008 5.61868 8.69469 5.43494 8.69469C4.96692 8.69469 4.52966 8.77393 4.13512 8.93021C3.73933 9.0869 3.3967 9.3021 3.11668 9.57002C2.84917 9.82601 2.61076 10.1368 2.40807 10.4937C2.21265 10.8377 2.05444 11.1965 1.93799 11.5603C1.82552 11.912 1.73145 12.2967 1.65839 12.7037C1.58588 13.1072 1.53685 13.4899 1.51254 13.8415C1.48865 14.1852 1.47656 14.543 1.47656 14.9044C1.47656 15.844 1.77525 16.6047 2.36426 17.1657C2.94598 17.7193 3.71558 18 4.65175 18H13.3189C14.2548 18 15.0244 17.7193 15.6062 17.1657C16.1954 16.6051 16.494 15.8442 16.494 14.9043C16.4939 14.5416 16.4817 14.1839 16.4577 13.8411ZM14.8789 16.4014C14.4945 16.7673 13.9842 16.9451 13.3187 16.9451H4.65175C3.98611 16.9451 3.4758 16.7673 3.09155 16.4016C2.71458 16.0427 2.53139 15.5529 2.53139 14.9044C2.53139 14.5671 2.54251 14.2341 2.56476 13.9144C2.58646 13.6008 2.63081 13.2562 2.69659 12.8901C2.76155 12.5285 2.84422 12.1892 2.94255 11.882C3.0369 11.5874 3.16557 11.2957 3.32515 11.0147C3.47745 10.7469 3.65268 10.5172 3.84604 10.3321C4.0269 10.1589 4.25487 10.0172 4.52348 9.91087C4.77191 9.81255 5.0511 9.75871 5.35419 9.75061C5.39113 9.77025 5.45691 9.80774 5.56348 9.87723C5.78032 10.0185 6.03026 10.1798 6.30656 10.3562C6.61803 10.5548 7.0193 10.7342 7.49872 10.8889C7.98885 11.0474 8.48872 11.1279 8.98489 11.1279C9.48106 11.1279 9.98108 11.0474 10.4709 10.8891C10.9508 10.734 11.3519 10.5548 11.6638 10.356C11.9465 10.1752 12.1895 10.0187 12.4063 9.87723C12.5129 9.80788 12.5787 9.77025 12.6156 9.75061C12.9188 9.75871 13.198 9.81255 13.4466 9.91087C13.7151 10.0172 13.943 10.159 14.1239 10.3321C14.3172 10.517 14.4925 10.7468 14.6448 11.0149C14.8045 11.2957 14.9333 11.5875 15.0275 11.8818C15.126 12.1894 15.2088 12.5286 15.2736 12.8899C15.3392 13.2568 15.3837 13.6014 15.4054 13.9146V13.9148C15.4278 14.2333 15.4391 14.5662 15.4392 14.9044C15.4391 15.553 15.2559 16.0427 14.8789 16.4014Z" fill="#2D2D2D"/>
</g>
<defs>
<clipPath id="clip0">
<rect width="18" height="18" fill="white"/>
</clipPath>
</defs>
</svg>
