<svg width="36" height="67" viewBox="0 0 36 67" fill="none" xmlns="http://www.w3.org/2000/svg">
<path d="M35.6974 45.675C35.6974 48.075 35.0974 50.375 33.8974 52.575C32.6974 54.725 30.9224 56.525 28.5724 57.975C26.2724 59.425 23.4974 60.25 20.2474 60.45V66.525H16.1974V60.45C11.6474 60.05 7.94736 58.6 5.09736 56.1C2.24736 53.55 0.797364 50.325 0.747364 46.425H8.02236C8.22236 48.525 8.99736 50.35 10.3474 51.9C11.7474 53.45 13.6974 54.425 16.1974 54.825V36.075C12.8474 35.225 10.1474 34.35 8.09736 33.45C6.04736 32.55 4.29736 31.15 2.84736 29.25C1.39736 27.35 0.672363 24.8 0.672363 21.6C0.672363 17.55 2.07236 14.2 4.87236 11.55C7.72236 8.9 11.4974 7.425 16.1974 7.125V0.899996H20.2474V7.125C24.4974 7.475 27.9224 8.85 30.5224 11.25C33.1224 13.6 34.6224 16.675 35.0224 20.475H27.7474C27.4974 18.725 26.7224 17.15 25.4224 15.75C24.1224 14.3 22.3974 13.35 20.2474 12.9V31.2C23.5474 32.05 26.2224 32.925 28.2724 33.825C30.3724 34.675 32.1224 36.05 33.5224 37.95C34.9724 39.85 35.6974 42.425 35.6974 45.675ZM7.64736 21.225C7.64736 23.675 8.37236 25.55 9.82236 26.85C11.2724 28.15 13.3974 29.225 16.1974 30.075V12.75C13.5974 13 11.5224 13.85 9.97236 15.3C8.42236 16.7 7.64736 18.675 7.64736 21.225ZM20.2474 54.9C22.9474 54.6 25.0474 53.625 26.5474 51.975C28.0974 50.325 28.8724 48.35 28.8724 46.05C28.8724 43.6 28.1224 41.725 26.6224 40.425C25.1224 39.075 22.9974 38 20.2474 37.2V54.9Z" fill="#01E9B9"/>
</svg>
