<svg width="131" height="306" viewBox="0 0 131 306" fill="none" xmlns="http://www.w3.org/2000/svg">
<path d="M-15.7586 299.505C-15.7586 296.331 -18.3327 293.787 -21.4757 293.787C-24.6461 293.787 -27.1925 296.33 -27.1925 299.505C-27.1925 302.648 -24.6461 305.219 -21.4757 305.219C-18.3331 305.219 -15.7586 302.648 -15.7586 299.505ZM2.15559 303.391C5.27009 302.906 7.41568 299.962 6.92701 296.847C6.43834 293.732 3.52634 291.59 0.383728 292.075C-2.73076 292.56 -4.8447 295.504 -4.35989 298.619C-3.93098 301.448 -1.49959 303.447 1.26967 303.447C1.55585 303.447 1.86943 303.419 2.15559 303.391ZM25.2424 297.904C28.2422 296.93 29.8988 293.704 28.9292 290.704C27.9592 287.704 24.7576 286.043 21.7299 287.017C18.73 287.986 17.0977 291.216 18.0396 294.22C18.8418 296.648 21.0707 298.19 23.5014 298.19C24.0703 298.19 24.6704 298.075 25.2424 297.904ZM47.1855 288.876C50.0177 287.446 51.1304 284.017 49.7034 281.187C48.3013 278.386 44.8413 277.242 42.0439 278.673C39.2152 280.099 38.1025 283.532 39.5295 286.361C40.5304 288.332 42.5287 289.503 44.6184 289.503C45.5005 289.503 46.3586 289.301 47.1855 288.876ZM67.4749 276.527C70.0174 274.699 70.6175 271.127 68.7602 268.556C66.9306 266.013 63.3313 265.413 60.7885 267.269C58.2179 269.1 57.6441 272.672 59.5032 275.243C60.6159 276.785 62.3596 277.615 64.1319 277.615C65.2755 277.615 66.4458 277.27 67.4749 276.527ZM85.5912 261.209C87.8184 258.984 87.8479 255.38 85.6176 253.127C83.3904 250.894 79.789 250.866 77.5306 253.095C75.3038 255.297 75.2757 258.924 77.4765 261.182C78.619 262.298 80.0752 262.867 81.5609 262.867C83.0188 262.867 84.475 262.326 85.5912 261.209ZM101.104 243.293C102.963 240.75 102.421 237.178 99.904 235.294C97.3629 233.407 93.7914 233.948 91.9042 236.494C90.0192 239.034 90.5616 242.606 93.1041 244.493C94.1331 245.236 95.3049 245.606 96.5048 245.606C98.2471 245.606 99.9617 244.811 101.104 243.293ZM113.648 223.175C115.106 220.374 114.02 216.917 111.219 215.459C108.42 214.001 104.962 215.089 103.505 217.887C102.048 220.688 103.134 224.145 105.935 225.603C106.791 226.032 107.705 226.234 108.591 226.234C110.649 226.234 112.649 225.118 113.648 223.175ZM122.935 201.341C123.936 198.342 122.335 195.115 119.336 194.113C116.334 193.084 113.106 194.71 112.105 197.713C111.106 200.685 112.705 203.94 115.706 204.945C116.306 205.143 116.906 205.231 117.506 205.231C119.906 205.231 122.136 203.713 122.935 201.341ZM128.68 178.307C129.192 175.196 127.107 172.251 123.992 171.736C120.879 171.194 117.935 173.309 117.421 176.424C116.877 179.539 118.992 182.483 122.107 182.996C122.423 183.051 122.737 183.083 123.051 183.083C125.792 183.083 128.221 181.109 128.68 178.307ZM130.794 154.675C130.822 151.534 128.279 148.96 125.136 148.904C121.964 148.874 119.394 151.419 119.364 154.562C119.306 157.705 121.851 160.307 124.993 160.335C128.193 160.335 130.736 157.82 130.794 154.675ZM124.393 137.502C127.508 137.043 129.678 134.158 129.222 131.043C128.793 127.9 125.879 125.727 122.764 126.186C119.622 126.643 117.478 129.529 117.908 132.673C118.335 135.502 120.764 137.558 123.565 137.558C123.821 137.558 124.107 137.53 124.393 137.502ZM120.249 115.04C123.249 114.097 124.963 110.896 124.02 107.896C123.078 104.866 119.878 103.181 116.876 104.123C113.849 105.039 112.162 108.238 113.106 111.268C113.849 113.727 116.105 115.297 118.565 115.297C119.107 115.297 119.677 115.213 120.249 115.04ZM112.649 93.4643C115.478 92.0916 116.65 88.6642 115.249 85.8056C113.849 82.9766 110.42 81.8342 107.592 83.2051C104.763 84.6056 103.591 88.0348 104.991 90.8638C105.992 92.894 108.021 94.0645 110.134 94.0645C110.963 94.0645 111.819 93.8637 112.649 93.4643ZM101.763 73.3749C104.334 71.5452 104.962 68.0028 103.163 65.4023C101.334 62.8296 97.7623 62.2016 95.1899 64.0314C92.6193 65.8316 91.9897 69.4036 93.7911 71.9745C94.9038 73.5757 96.6756 74.4041 98.4753 74.4041C99.62 74.4037 100.762 74.0898 101.763 73.3749ZM87.9056 55.2001C90.1904 53.0008 90.2477 49.3989 88.0469 47.1125C85.8479 44.8555 82.2183 44.7978 79.9599 46.9694C77.6751 49.1704 77.6178 52.7986 79.8186 55.057C80.933 56.2289 82.4468 56.7995 83.9329 56.7995C85.361 56.7995 86.7911 56.2866 87.9056 55.2001ZM71.4176 39.3958C73.3031 36.8825 72.8165 33.2806 70.3032 31.3953C67.7885 29.4819 64.187 29.9949 62.3037 32.5099C60.387 35.0249 60.8736 38.5973 63.3883 40.5121C64.4451 41.2832 65.6467 41.6548 66.8449 41.6548C68.5893 41.6548 70.2754 40.882 71.4176 39.3958ZM52.6734 26.3371C54.1594 23.5658 53.1026 20.0789 50.3313 18.593C47.5581 17.1068 44.0738 18.1655 42.5881 20.9354C41.1024 23.7085 42.156 27.1936 44.932 28.6795C45.787 29.1384 46.7042 29.3666 47.6179 29.3666C49.6721 29.3666 51.6443 28.2523 52.6734 26.3371ZM32.1309 16.3357C33.1845 13.3636 31.6148 10.1056 28.6149 9.07645C25.6431 8.04906 22.3856 9.61863 21.3565 12.5911C20.2997 15.5632 21.8695 18.8212 24.8729 19.8504C25.4688 20.0789 26.1279 20.1942 26.7281 20.1942C29.0997 20.1942 31.3008 18.708 32.1309 16.3357ZM10.2686 9.67629C10.8406 6.59095 8.78256 3.61882 5.67159 3.04676C2.55322 2.4747 -0.415024 4.56078 -0.959244 7.64787C-1.53123 10.7631 0.52681 13.7352 3.6413 14.3073C3.98338 14.3632 4.3251 14.391 4.66718 14.391C7.38405 14.391 9.78381 12.4498 10.2686 9.67629ZM-12.3337 6.53328C-12.2743 3.36075 -14.7609 0.759917 -17.932 0.674477C-21.0742 0.589037 -23.7046 3.10442 -23.7602 6.24743C-23.8474 9.41997 -21.3326 12.019 -18.19 12.1062H-18.0469C-14.9602 12.1062 -12.4174 9.61898 -12.3337 6.53328Z" fill="#DA3643"/>
<path d="M-15.7587 269.383C-15.7587 266.212 -18.3328 263.669 -21.4758 263.669C-24.6462 263.669 -27.1925 266.212 -27.1925 269.383C-27.1925 272.526 -24.6462 275.073 -21.4758 275.073C-18.3332 275.072 -15.7587 272.526 -15.7587 269.383ZM2.32607 272.756C5.44091 272.156 7.44305 269.156 6.84329 266.041C6.21188 262.954 3.21234 260.955 0.125618 261.555C-2.98571 262.155 -4.98786 265.155 -4.38774 268.27C-3.84388 270.988 -1.4441 272.871 1.21407 272.871C1.58321 272.871 1.95341 272.843 2.32607 272.756ZM25.2423 265.839C28.1585 264.611 29.557 261.269 28.3294 258.352C27.1291 255.44 23.7879 254.065 20.8717 255.269C17.9558 256.468 16.5851 259.81 17.7853 262.727C18.699 264.928 20.8161 266.271 23.0693 266.271C23.7879 266.271 24.5272 266.128 25.2423 265.839ZM46.3586 254.522C48.9851 252.781 49.7033 249.209 47.9318 246.61C46.1877 243.98 42.6158 243.265 40.0143 245.037C37.3846 246.778 36.6727 250.322 38.4446 252.952C39.5295 254.609 41.3291 255.495 43.1878 255.495C44.2728 255.495 45.3854 255.182 46.3586 254.522ZM64.8448 239.351C67.1032 237.122 67.1032 233.494 64.8448 231.261C62.6458 229.032 59.0162 229.032 56.7877 231.261C54.5605 233.494 54.5605 237.094 56.7596 239.323C57.9021 240.464 59.3597 241.008 60.8176 241.008C62.2742 241.008 63.7321 240.464 64.8448 239.351ZM80.0748 220.859C81.8172 218.229 81.1021 214.688 78.5034 212.916C75.8751 211.172 72.3313 211.859 70.5594 214.489C68.8171 217.116 69.5026 220.66 72.1327 222.432C73.1023 223.061 74.2185 223.378 75.3034 223.378C77.1329 223.378 78.9604 222.488 80.0748 220.859ZM91.3621 199.741C92.5898 196.828 91.1912 193.482 88.2754 192.282C85.3609 191.082 82.0197 192.456 80.818 195.369C79.6182 198.282 80.9906 201.628 83.9047 202.827C84.6198 203.145 85.3609 203.285 86.1038 203.285C88.3327 203.285 90.4463 201.941 91.3621 199.741ZM98.3343 176.849C98.9344 173.738 96.9323 170.738 93.8487 170.138C90.7321 169.51 87.7326 171.537 87.1325 174.624C86.5028 177.708 88.5049 180.708 91.618 181.339C91.9896 181.426 92.3627 181.454 92.7343 181.454C95.3889 181.454 97.7922 179.567 98.3343 176.849ZM100.677 153.02C100.677 149.876 98.1343 147.305 94.9618 147.305C91.8174 147.305 89.2467 149.846 89.2467 153.02C89.2467 156.163 91.7914 158.734 94.9618 158.734C98.1044 158.734 100.677 156.191 100.677 153.02ZM93.8768 135.931C96.9618 135.301 98.99 132.301 98.3624 129.213C97.7623 126.128 94.7628 124.1 91.6479 124.7C88.563 125.329 86.5608 128.329 87.1606 131.415C87.7027 134.129 90.0747 136.046 92.7606 136.046C93.134 136.046 93.5056 135.988 93.8768 135.931ZM88.3605 113.755C91.2749 112.553 92.6471 109.211 91.4475 106.297C90.2476 103.38 86.9043 101.98 83.9902 103.182C81.0757 104.382 79.6737 107.725 80.9035 110.64C81.7894 112.839 83.9329 114.182 86.1896 114.182C86.9043 114.182 87.6471 114.041 88.3605 113.755ZM78.5891 93.093C81.2174 91.3505 81.9325 87.7785 80.1901 85.178C78.4183 82.5476 74.8763 81.8342 72.2462 83.5768C69.618 85.3489 68.9328 88.8931 70.6748 91.5217C71.7892 93.1507 73.5892 94.0645 75.4184 94.0645C76.5328 94.0645 77.6178 93.7505 78.5891 93.093ZM64.9896 74.7473C67.2463 72.5163 67.2463 68.8885 65.0174 66.6596C62.7885 64.4308 59.1593 64.4009 56.9308 66.6315C54.7019 68.8589 54.7019 72.4885 56.9026 74.7177C58.0452 75.8323 59.5028 76.4044 60.9593 76.4044C62.4169 76.4044 63.8752 75.8323 64.9896 74.7473ZM48.0988 59.3723C49.8429 56.7437 49.1595 53.1995 46.5294 51.4274C43.9303 49.6848 40.3592 50.3704 38.6151 53.0008C36.8428 55.5999 37.5583 59.1718 40.1602 60.9162C41.1579 61.5737 42.2463 61.8876 43.3552 61.8876C45.1865 61.8873 46.9861 61.0012 48.0988 59.3723ZM28.5277 47.5692C29.7279 44.6544 28.3568 41.311 25.4413 40.1109C22.5251 38.8828 19.1838 40.254 17.9836 43.1703C16.7559 46.0833 18.1302 49.4285 21.0425 50.6566C21.7854 50.9425 22.5251 51.0838 23.2437 51.0838C25.4968 51.0838 27.614 49.7706 28.5277 47.5692ZM7.03841 39.8546C7.63853 36.7394 5.64304 33.7377 2.55281 33.1098C-0.558876 32.5096 -3.55804 34.5102 -4.18594 37.5959C-4.7857 40.7111 -2.79093 43.7128 0.327431 44.313C0.697273 44.3984 1.07027 44.4262 1.44012 44.4262C4.09828 44.4262 6.49805 42.5687 7.03841 39.8546ZM-15.5601 36.4813C-15.5601 33.3383 -18.1029 30.7656 -21.2768 30.7656C-24.4163 30.7378 -26.9904 33.3105 -26.9904 36.4535C-26.9904 39.6247 -24.4479 42.1692 -21.2768 42.197C-18.1303 42.197 -15.5601 39.6243 -15.5601 36.4813Z" fill="#DA3643"/>
<path d="M-15.7589 238.779C-15.7589 235.636 -18.333 233.061 -21.4759 233.061C-24.6182 233.061 -27.1927 235.636 -27.1927 238.779C-27.1927 241.95 -24.6186 244.493 -21.4759 244.493C-18.3333 244.493 -15.7589 241.95 -15.7589 238.779ZM2.01193 241.465C5.07088 240.638 6.89865 237.519 6.06861 234.463C5.26986 231.404 2.15502 229.604 -0.900414 230.407C-3.959 231.205 -5.78677 234.349 -4.98837 237.377C-4.30107 239.951 -1.98849 241.636 0.554359 241.636C1.03916 241.636 1.52748 241.58 2.01193 241.465ZM23.9554 232.461C26.7004 230.892 27.6419 227.375 26.0722 224.661C24.4989 221.916 21.0146 220.946 18.2699 222.516C15.5281 224.089 14.5863 227.605 16.156 230.319C17.2128 232.178 19.1274 233.204 21.1295 233.204C22.0717 233.204 23.0691 232.978 23.9554 232.461ZM42.8146 218.117C45.0709 215.916 45.0991 212.288 42.8737 210.031C40.6694 207.798 37.042 207.77 34.8166 209.972C32.556 212.201 32.5286 215.832 34.7259 218.061C35.8699 219.202 37.3274 219.774 38.8135 219.774C40.2721 219.774 41.7016 219.233 42.8146 218.117ZM57.4168 199.458C59.016 196.74 58.1023 193.224 55.3868 191.626C52.6731 190.025 49.1593 190.911 47.5579 193.629C45.9569 196.343 46.8709 199.855 49.5878 201.457C50.5001 202.001 51.501 202.259 52.4741 202.259C54.445 202.259 56.3304 201.258 57.4168 199.458ZM66.7036 177.652C67.56 174.596 65.7882 171.449 62.7588 170.595C59.7016 169.737 56.5589 171.537 55.7025 174.568C54.8447 177.596 56.6166 180.767 59.672 181.597C60.1885 181.74 60.7028 181.824 61.2154 181.824C63.7024 181.823 66.0163 180.167 66.7036 177.652ZM70.0748 154.19C70.1307 151.018 67.5878 148.447 64.4452 148.389C61.3026 148.36 58.7024 150.877 58.6444 154.018C58.6167 157.192 61.1314 159.792 64.3021 159.819C67.5024 159.819 70.0467 157.307 70.0748 154.19ZM63.2176 137.587C66.273 136.814 68.132 133.701 67.361 130.643C66.5887 127.584 63.5034 125.727 60.4444 126.499C57.3595 127.27 55.5018 130.357 56.2728 133.415C56.9302 136.015 59.2445 137.758 61.8152 137.758C62.274 137.758 62.7306 137.701 63.2176 137.587ZM56.4436 116.355C59.1869 114.812 60.1881 111.353 58.6743 108.581C57.1309 105.838 53.6445 104.838 50.9013 106.352C48.1299 107.896 47.1293 111.353 48.6709 114.124C49.7031 116.011 51.6722 117.069 53.674 117.069C54.6159 117.069 55.5577 116.84 56.4436 116.355ZM44.4153 97.6086C46.704 95.4076 46.7873 91.8057 44.5861 89.521C42.4131 87.2359 38.7861 87.1487 36.529 89.3501C34.2446 91.5494 34.1574 95.1513 36.3582 97.4364C37.4747 98.6083 38.9569 99.1807 40.4739 99.1807C41.9006 99.1803 43.3272 98.6656 44.4153 97.6086ZM28.0427 82.5195C29.6679 79.8332 28.8137 76.3171 26.1277 74.66C23.4421 73.031 19.93 73.8893 18.2696 76.5752C16.644 79.2615 17.4708 82.7758 20.1842 84.4347C21.0983 85.005 22.1269 85.2631 23.156 85.2631C25.0709 85.2631 26.9546 84.2916 28.0427 82.5195ZM8.32881 72.1745C9.2151 69.1447 7.471 65.974 4.47076 65.058C1.43995 64.172 -1.75858 65.9163 -2.64417 68.9443C-3.53046 71.946 -1.81412 75.1467 1.21354 76.0327C1.7574 76.2036 2.29845 76.2612 2.84232 76.2612C5.29764 76.2612 7.58245 74.66 8.32881 72.1745ZM-13.3872 67.2594C-13.3035 64.0869 -15.787 61.4579 -18.9609 61.3725C-22.132 61.2871 -24.73 63.7726 -24.8207 66.9455C-24.9044 70.0885 -22.421 72.7171 -19.2752 72.8025H-19.1043C-16.0173 72.8025 -13.4744 70.3451 -13.3872 67.2594Z" fill="#DA3643"/>
</svg>
