<svg width="129" height="306" viewBox="0 0 129 306" fill="none" xmlns="http://www.w3.org/2000/svg">
<path d="M146.759 299.505C146.759 296.331 149.333 293.788 152.476 293.788C155.646 293.788 158.192 296.33 158.192 299.505C158.192 302.648 155.646 305.219 152.476 305.219C149.333 305.219 146.759 302.648 146.759 299.505ZM128.844 303.391C125.73 302.906 123.584 299.962 124.073 296.847C124.562 293.732 127.474 291.59 130.616 292.075C133.731 292.56 135.845 295.504 135.36 298.619C134.931 301.448 132.5 303.447 129.73 303.447C129.444 303.447 129.131 303.419 128.844 303.391ZM105.758 297.904C102.758 296.931 101.101 293.704 102.071 290.704C103.041 287.704 106.242 286.043 109.27 287.017C112.27 287.986 113.902 291.217 112.96 294.22C112.158 296.648 109.929 298.19 107.499 298.19C106.93 298.19 106.33 298.075 105.758 297.904ZM83.8145 288.876C80.9823 287.446 79.8696 284.017 81.2966 281.187C82.6987 278.386 86.1587 277.242 88.9561 278.673C91.7848 280.099 92.8975 283.532 91.4705 286.361C90.4696 288.332 88.4713 289.504 86.3816 289.504C85.4995 289.504 84.6414 289.301 83.8145 288.876ZM63.5251 276.527C60.9826 274.699 60.3825 271.127 62.2398 268.556C64.0694 266.013 67.6687 265.413 70.2115 267.269C72.7821 269.1 73.3559 272.672 71.4968 275.243C70.3841 276.785 68.6404 277.615 66.8681 277.615C65.7245 277.615 64.5542 277.27 63.5251 276.527ZM45.4088 261.21C43.1816 258.984 43.1521 255.38 45.3824 253.127C47.6096 250.894 51.211 250.866 53.4694 253.096C55.6962 255.297 55.7243 258.924 53.5235 261.182C52.381 262.298 50.9248 262.867 49.4391 262.867C47.9812 262.867 46.525 262.326 45.4088 261.21ZM29.8961 243.293C28.037 240.75 28.5795 237.178 31.096 235.294C33.6371 233.407 37.2086 233.948 39.0958 236.494C40.9808 239.034 40.4384 242.606 37.8959 244.493C36.8669 245.236 35.6951 245.606 34.4952 245.606C32.7529 245.606 31.0383 244.811 29.8961 243.293ZM17.3516 223.175C15.8937 220.374 16.98 216.917 19.7809 215.459C22.5801 214.002 26.0384 215.089 27.4946 217.887C28.9525 220.688 27.8662 224.145 25.0653 225.603C24.2089 226.032 23.2951 226.235 22.4092 226.235C20.3512 226.235 18.3508 225.119 17.3516 223.175ZM8.06476 201.341C7.06386 198.342 8.66487 195.115 11.6644 194.113C14.6657 193.084 17.8937 194.71 18.895 197.713C19.8941 200.685 18.2949 203.94 15.2936 204.945C14.6938 205.143 14.0937 205.231 13.4939 205.231C11.0942 205.231 8.86351 203.714 8.06476 201.341ZM2.32023 178.308C1.80765 175.196 3.89347 172.252 7.00796 171.736C10.1207 171.195 13.065 173.309 13.5794 176.424C14.1232 179.539 12.0079 182.483 8.89304 182.996C8.57733 183.051 8.26339 183.083 7.94945 183.083C5.20831 183.083 2.77867 181.109 2.32023 178.308ZM0.206286 154.675C0.178161 151.534 2.721 148.96 5.86362 148.904C9.03577 148.874 11.6064 151.419 11.6363 154.562C11.6939 157.705 9.14933 160.307 6.00671 160.335C2.80679 160.335 0.263942 157.821 0.206286 154.675ZM6.60683 137.502C3.49199 137.043 1.3225 134.158 1.77777 131.043C2.20668 127.9 5.12077 125.727 8.23562 126.186C11.3782 126.643 13.5217 129.529 13.0925 132.673C12.6653 135.502 10.236 137.558 7.43511 137.558C7.17882 137.558 6.893 137.53 6.60683 137.502ZM10.7507 115.04C7.75116 114.097 6.0366 110.896 6.98019 107.896C7.92203 104.866 11.1223 103.181 14.1236 104.123C17.1512 105.039 18.8377 108.238 17.8941 111.268C17.1512 113.727 14.8946 115.297 12.4354 115.297C11.8929 115.297 11.3227 115.213 10.7507 115.04ZM18.3508 93.4644C15.5221 92.0917 14.35 88.6643 15.7506 85.8057C17.1509 82.9767 20.5797 81.8344 23.4083 83.2053C26.237 84.6057 27.4091 88.0349 26.0085 90.8639C25.0076 92.8941 22.9791 94.0646 20.8655 94.0646C20.0372 94.0646 19.1812 93.8638 18.3508 93.4644ZM29.2369 73.3751C26.6663 71.5453 26.0384 68.0029 27.8366 65.4024C29.6662 62.8297 33.2377 62.2017 35.8101 64.0315C38.3807 65.8317 39.0103 69.4037 37.2089 71.9746C36.0962 73.5758 34.3244 74.4042 32.5247 74.4042C31.38 74.4039 30.2378 74.0899 29.2369 73.3751ZM43.0944 55.2002C40.8096 53.0009 40.7523 49.3991 42.9531 47.1126C45.1521 44.8556 48.7817 44.798 51.0401 46.9695C53.3249 49.1705 53.3822 52.7987 51.1814 55.0571C50.067 56.229 48.5532 56.7997 47.0671 56.7997C45.639 56.7997 44.2089 56.2867 43.0944 55.2002ZM59.5824 39.3959C57.6969 36.8826 58.1835 33.2808 60.6968 31.3954C63.2115 29.482 66.813 29.995 68.6963 32.51C70.613 35.0251 70.1264 38.5974 67.6117 40.5122C66.5549 41.2833 65.3533 41.6549 64.1551 41.6549C62.4107 41.6549 60.7246 40.8821 59.5824 39.3959ZM78.3266 26.3372C76.8406 23.5659 77.8974 20.079 80.6687 18.5931C83.4419 17.1069 86.9262 18.1656 88.4119 20.9355C89.8976 23.7086 88.844 27.1938 86.068 28.6796C85.213 29.1385 84.2958 29.3667 83.3821 29.3667C81.3279 29.3667 79.3557 28.2524 78.3266 26.3372ZM98.8691 16.3358C97.8155 13.3637 99.3852 10.1057 102.385 9.07657C105.357 8.04918 108.614 9.61875 109.643 12.5912C110.7 15.5633 109.131 18.8213 106.127 19.8505C105.531 20.079 104.872 20.1943 104.272 20.1943C101.9 20.1943 99.6992 18.7081 98.8691 16.3358ZM120.731 9.67641C120.159 6.59107 122.217 3.61895 125.328 3.04688C128.447 2.47482 131.415 4.5609 131.959 7.648C132.531 10.7632 130.473 13.7353 127.359 14.3074C127.017 14.3633 126.675 14.3911 126.333 14.3911C123.616 14.3911 121.216 12.4499 120.731 9.67641ZM143.334 6.53341C143.274 3.36087 145.761 0.760039 148.932 0.674599C152.074 0.589159 154.705 3.10455 154.76 6.24755C154.847 9.42009 152.333 12.0192 149.19 12.1064H149.047C145.96 12.1064 143.417 9.6191 143.334 6.53341Z" fill="#DA3643"/>
<path d="M146.759 269.383C146.759 266.212 149.333 263.669 152.476 263.669C155.646 263.669 158.193 266.212 158.193 269.383C158.193 272.526 155.646 275.073 152.476 275.073C149.333 275.072 146.759 272.526 146.759 269.383ZM128.674 272.756C125.559 272.156 123.557 269.156 124.157 266.041C124.788 262.954 127.788 260.955 130.874 261.555C133.986 262.155 135.988 265.155 135.388 268.27C134.844 270.988 132.444 272.871 129.786 272.871C129.417 272.871 129.047 272.843 128.674 272.756ZM105.758 265.839C102.841 264.611 101.443 261.269 102.671 258.352C103.871 255.44 107.212 254.065 110.128 255.269C113.044 256.468 114.415 259.811 113.215 262.727C112.301 264.928 110.184 266.271 107.931 266.271C107.212 266.271 106.473 266.128 105.758 265.839ZM84.6414 254.522C82.0149 252.782 81.2967 249.209 83.0682 246.611C84.8123 243.981 88.3842 243.265 90.9857 245.037C93.6154 246.778 94.3273 250.322 92.5554 252.952C91.4705 254.61 89.6709 255.495 87.8122 255.495C86.7272 255.496 85.6146 255.182 84.6414 254.522ZM66.1552 239.351C63.8968 237.122 63.8968 233.494 66.1552 231.262C68.3542 229.032 71.9838 229.032 74.2123 231.262C76.4395 233.494 76.4395 237.094 74.2404 239.323C73.0979 240.464 71.6403 241.008 70.1824 241.008C68.7258 241.008 67.2679 240.464 66.1552 239.351ZM50.9252 220.859C49.1828 218.229 49.8979 214.688 52.4966 212.916C55.1249 211.172 58.6687 211.859 60.4406 214.49C62.1829 217.116 61.4974 220.661 58.8673 222.432C57.8977 223.061 56.7815 223.378 55.6966 223.378C53.8671 223.378 52.0396 222.488 50.9252 220.859ZM39.6379 199.741C38.4102 196.828 39.8088 193.483 42.7246 192.282C45.6391 191.082 48.9803 192.457 50.182 195.37C51.3818 198.282 50.0094 201.628 47.0953 202.828C46.3802 203.145 45.6391 203.285 44.8962 203.285C42.6673 203.285 40.5537 201.941 39.6379 199.741ZM32.6657 176.849C32.0656 173.738 34.0677 170.738 37.1513 170.138C40.2679 169.51 43.2674 171.537 43.8675 174.624C44.4972 177.708 42.4951 180.708 39.382 181.339C39.0104 181.426 38.6373 181.454 38.2657 181.454C35.6111 181.454 33.2078 179.567 32.6657 176.849ZM30.3232 153.02C30.3232 149.876 32.8657 147.305 36.0382 147.305C39.1826 147.305 41.7533 149.846 41.7533 153.02C41.7533 156.163 39.2086 158.734 36.0382 158.734C32.8956 158.734 30.3232 156.191 30.3232 153.02ZM37.1232 135.931C34.0382 135.301 32.01 132.301 32.6376 129.214C33.2377 126.128 36.2372 124.1 39.3521 124.7C42.437 125.329 44.4392 128.329 43.8394 131.415C43.2973 134.129 40.9253 136.046 38.2394 136.046C37.866 136.046 37.4944 135.988 37.1232 135.931ZM42.6395 113.755C39.7251 112.553 38.3529 109.211 39.5525 106.297C40.7524 103.38 44.0957 101.98 47.0098 103.182C49.9243 104.382 51.3263 107.725 50.0965 110.64C49.2106 112.839 47.0671 114.182 44.8104 114.182C44.0957 114.182 43.3529 114.041 42.6395 113.755ZM52.4109 93.0931C49.7826 91.3506 49.0675 87.7786 50.8099 85.1781C52.5817 82.5478 56.1237 81.8344 58.7538 83.5769C61.382 85.349 62.0672 88.8932 60.3252 91.5218C59.2108 93.1508 57.4108 94.0646 55.5816 94.0646C54.4672 94.0646 53.3822 93.7506 52.4109 93.0931ZM66.0104 74.7474C63.7537 72.5165 63.7537 68.8886 65.9826 66.6598C68.2115 64.4309 71.8407 64.401 74.0692 66.6316C76.2981 68.8591 76.2981 72.4887 74.0974 74.7179C72.9548 75.8324 71.4972 76.4045 70.0407 76.4045C68.5831 76.4045 67.1248 75.8324 66.0104 74.7474ZM82.9012 59.3724C81.1571 56.7438 81.8405 53.1996 84.4706 51.4275C87.0697 49.6849 90.6408 50.3706 92.3849 53.0009C94.1572 55.6 93.4417 59.172 90.8398 60.9163C89.8421 61.5738 88.7537 61.8878 87.6448 61.8878C85.8135 61.8874 84.0139 61.0014 82.9012 59.3724ZM102.472 47.5693C101.272 44.6545 102.643 41.3111 105.559 40.1111C108.475 38.8829 111.816 40.2542 113.016 43.1704C114.244 46.0834 112.87 49.4286 109.957 50.6568C109.215 50.9426 108.475 51.084 107.756 51.084C105.503 51.084 103.386 49.7707 102.472 47.5693ZM123.962 39.8547C123.361 36.7395 125.357 33.7379 128.447 33.1099C131.559 32.5097 134.558 34.5103 135.186 37.596C135.786 40.7113 133.791 43.7129 130.673 44.3131C130.303 44.3985 129.93 44.4263 129.56 44.4263C126.902 44.4263 124.502 42.5688 123.962 39.8547ZM146.56 36.4814C146.56 33.3384 149.103 30.7657 152.277 30.7657C155.416 30.7379 157.99 33.3106 157.99 36.4537C157.99 39.6248 155.448 42.1694 152.277 42.1971C149.13 42.1971 146.56 39.6244 146.56 36.4814Z" fill="#DA3643"/>
<path d="M146.758 238.779C146.758 235.636 149.332 233.061 152.475 233.061C155.618 233.061 158.192 235.636 158.192 238.779C158.192 241.95 155.618 244.493 152.475 244.493C149.333 244.493 146.758 241.95 146.758 238.779ZM128.988 241.465C125.929 240.638 124.101 237.52 124.931 234.464C125.73 231.405 128.844 229.605 131.9 230.407C134.959 231.206 136.786 234.349 135.988 237.377C135.301 239.951 132.988 241.636 130.445 241.636C129.96 241.636 129.472 241.581 128.988 241.465ZM107.044 232.462C104.299 230.892 103.358 227.375 104.927 224.661C106.501 221.916 109.985 220.946 112.73 222.516C115.471 224.089 116.413 227.606 114.844 230.319C113.787 232.179 111.872 233.204 109.87 233.204C108.928 233.205 107.93 232.978 107.044 232.462ZM88.1849 218.118C85.9286 215.916 85.9004 212.288 88.1258 210.031C90.3301 207.799 93.9576 207.77 96.1829 209.972C98.4435 212.201 98.4709 215.832 96.2736 218.062C95.1297 219.202 93.6721 219.774 92.186 219.774C90.7274 219.774 89.2979 219.234 88.1849 218.118ZM73.5827 199.458C71.9835 196.74 72.8972 193.224 75.6127 191.626C78.3264 190.026 81.8402 190.912 83.4416 193.629C85.0426 196.343 84.1286 199.855 81.4117 201.457C80.4994 202.001 79.4985 202.259 78.5254 202.259C76.5545 202.259 74.6691 201.258 73.5827 199.458ZM64.2959 177.652C63.4395 174.596 65.2113 171.449 68.2407 170.595C71.2979 169.737 74.4406 171.537 75.297 174.568C76.1548 177.596 74.3829 180.767 71.3275 181.597C70.811 181.74 70.2967 181.824 69.7841 181.824C67.2972 181.824 64.9832 180.167 64.2959 177.652ZM60.9247 154.191C60.8688 151.018 63.4117 148.447 66.5543 148.39C69.6969 148.36 72.2971 150.877 72.3551 154.018C72.3829 157.192 69.8681 159.792 66.6974 159.819C63.4971 159.819 60.9529 157.308 60.9247 154.191ZM67.782 137.588C64.7265 136.815 62.8675 133.702 63.6385 130.644C64.4108 127.584 67.4961 125.727 70.5551 126.499C73.64 127.27 75.4977 130.357 74.7267 133.415C74.0693 136.015 71.755 137.758 69.1843 137.758C68.7256 137.759 68.2689 137.701 67.782 137.588ZM74.5559 116.355C71.8126 114.812 70.8114 111.353 72.3252 108.581C73.8686 105.838 77.355 104.838 80.0983 106.352C82.8696 107.896 83.8702 111.353 82.3286 114.125C81.2964 116.012 79.3273 117.069 77.3255 117.069C76.3836 117.069 75.4418 116.84 74.5559 116.355ZM86.5842 97.6089C84.2955 95.4078 84.2122 91.806 86.4134 89.5212C88.5864 87.2362 92.2134 87.149 94.4705 89.3504C96.7549 91.5497 96.8421 95.1515 94.6413 97.4366C93.5248 98.6085 92.0426 99.1809 90.5256 99.1809C89.0989 99.1806 87.6723 98.6658 86.5842 97.6089ZM102.957 82.5197C101.332 79.8334 102.186 76.3174 104.872 74.6603C107.557 73.0313 111.069 73.8896 112.73 76.5755C114.356 79.2617 113.529 82.776 110.815 84.4349C109.901 85.0052 108.873 85.2633 107.844 85.2633C105.929 85.2633 104.045 84.2918 102.957 82.5197ZM122.671 72.1748C121.784 69.145 123.529 65.9742 126.529 65.0583C129.56 64.1722 132.758 65.9165 133.644 68.9446C134.53 71.9462 132.814 75.1469 129.786 76.0329C129.242 76.2038 128.701 76.2615 128.157 76.2615C125.702 76.2615 123.417 74.6603 122.671 72.1748ZM144.387 67.2597C144.303 64.0871 146.786 61.4582 149.96 61.3727C153.131 61.2873 155.73 63.7728 155.82 66.9457C155.904 70.0887 153.42 72.7173 150.275 72.8027H150.104C147.017 72.8027 144.474 70.3454 144.387 67.2597Z" fill="#DA3643"/>
</svg>
