<svg width="21" height="21" viewBox="0 0 21 21" fill="none" xmlns="http://www.w3.org/2000/svg">
<path d="M12.3561 0.76904C13.3813 1.79416 13.3813 3.45622 12.3561 4.48135C11.331 5.50647 9.66896 5.50647 8.64384 4.48135C7.61872 3.45622 7.61872 1.79416 8.64384 0.76904C9.66892 -0.256082 11.331 -0.256082 12.3561 0.76904Z" fill="#2D2D2D"/>
<path d="M12.3561 8.64402C13.3813 9.66915 13.3813 11.3312 12.3561 12.3563C11.331 13.3814 9.66896 13.3814 8.64384 12.3563C7.61872 11.3312 7.61872 9.66915 8.64384 8.64402C9.66892 7.6189 11.331 7.6189 12.3561 8.64402Z" fill="#2D2D2D"/>
<path d="M12.3561 16.5188C13.3813 17.5439 13.3813 19.2059 12.3561 20.2311C11.331 21.2562 9.66896 21.2562 8.64384 20.2311C7.61872 19.2059 7.61872 17.5439 8.64384 16.5188C9.66892 15.4936 11.331 15.4936 12.3561 16.5188Z" fill="#2D2D2D"/>
</svg>
